<?xml version="1.0" encoding="UTF-8"?>
<svg width="403px" height="116px" viewBox="0 0 403 116" xmlns="http://www.w3.org/2000/svg" xmlns:xlink="http://www.w3.org/1999/xlink" version="1.1">
 <!-- Generated by Pixelmator Pro 2.3.2 -->
 <path id="Path" d="M138.016 46.347 L127.654 46.347 127.654 40.24 155.871 40.24 155.871 46.347 145.509 46.347 145.509 72.622 138.016 72.622 Z M162.97 51.019 C163.833 49.816 164.99 48.906 166.439 48.289 167.919 47.673 169.615 47.364 171.527 47.364 L171.527 54.026 C170.726 53.964 170.186 53.933 169.908 53.933 167.842 53.933 166.223 54.519 165.051 55.691 163.879 56.832 163.293 58.559 163.293 60.872 L163.293 72.622 156.077 72.622 156.077 47.734 162.97 47.734 Z M198.296 47.734 L198.296 72.622 191.449 72.622 191.449 69.661 C190.493 70.74 189.352 71.573 188.026 72.159 186.7 72.714 185.266 72.992 183.724 72.992 180.455 72.992 177.865 72.051 175.953 70.17 174.041 68.289 173.085 65.498 173.085 61.797 L173.085 47.734 180.301 47.734 180.301 60.733 C180.301 64.742 181.982 66.747 185.343 66.747 187.07 66.747 188.458 66.192 189.507 65.081 190.555 63.94 191.079 62.26 191.079 60.039 L191.079 47.734 Z M210.579 72.992 C208.512 72.992 206.492 72.745 204.519 72.252 202.545 71.727 200.972 71.08 199.8 70.309 L202.206 65.128 C203.316 65.837 204.657 66.423 206.23 66.885 207.803 67.317 209.345 67.533 210.856 67.533 213.909 67.533 215.436 66.778 215.436 65.266 215.436 64.557 215.019 64.048 214.187 63.74 213.354 63.432 212.074 63.169 210.347 62.953 208.312 62.645 206.631 62.29 205.305 61.89 203.979 61.489 202.823 60.779 201.836 59.762 200.88 58.744 200.402 57.295 200.402 55.413 200.402 53.841 200.849 52.453 201.743 51.25 202.668 50.016 203.994 49.06 205.721 48.382 207.479 47.704 209.545 47.364 211.92 47.364 213.678 47.364 215.42 47.565 217.147 47.966 218.905 48.336 220.355 48.86 221.496 49.538 L219.09 54.673 C216.901 53.44 214.511 52.823 211.92 52.823 210.378 52.823 209.222 53.039 208.451 53.47 207.68 53.902 207.294 54.457 207.294 55.136 207.294 55.907 207.711 56.446 208.543 56.755 209.376 57.063 210.702 57.356 212.521 57.634 214.557 57.973 216.222 58.343 217.517 58.744 218.813 59.114 219.938 59.808 220.894 60.826 221.85 61.843 222.328 63.262 222.328 65.081 222.328 66.623 221.866 67.996 220.941 69.198 220.015 70.401 218.658 71.342 216.87 72.02 215.112 72.668 213.015 72.992 210.579 72.992 Z M240.057 71.419 C239.348 71.943 238.469 72.344 237.42 72.622 236.403 72.868 235.323 72.992 234.182 72.992 231.222 72.992 228.924 72.236 227.29 70.725 225.686 69.214 224.884 66.993 224.884 64.064 L224.884 53.841 221.045 53.841 221.045 48.289 224.884 48.289 224.884 42.23 232.1 42.23 232.1 48.289 238.299 48.289 238.299 53.841 232.1 53.841 232.1 63.971 C232.1 65.02 232.363 65.837 232.887 66.423 233.442 66.978 234.213 67.256 235.2 67.256 236.341 67.256 237.312 66.947 238.114 66.33 Z M301.108 40.24 L290.515 72.622 282.466 72.622 275.342 50.695 267.987 72.622 259.984 72.622 249.345 40.24 257.116 40.24 264.425 63 272.058 40.24 278.996 40.24 286.398 63.185 293.938 40.24 Z M310.193 47.364 C314.048 47.364 317.009 48.289 319.075 50.14 321.141 51.959 322.174 54.719 322.174 58.42 L322.174 72.622 315.42 72.622 315.42 69.522 C314.064 71.835 311.535 72.992 307.834 72.992 305.922 72.992 304.257 72.668 302.838 72.02 301.45 71.373 300.386 70.478 299.646 69.337 298.906 68.196 298.536 66.901 298.536 65.451 298.536 63.139 299.4 61.319 301.127 59.993 302.884 58.667 305.583 58.004 309.222 58.004 L314.958 58.004 C314.958 56.431 314.48 55.228 313.524 54.396 312.568 53.532 311.134 53.1 309.222 53.1 307.896 53.1 306.585 53.316 305.29 53.748 304.025 54.149 302.946 54.704 302.052 55.413 L299.461 50.371 C300.818 49.415 302.437 48.675 304.318 48.151 306.23 47.626 308.189 47.364 310.193 47.364 Z M309.638 68.134 C310.872 68.134 311.967 67.857 312.923 67.302 313.879 66.716 314.557 65.868 314.958 64.758 L314.958 62.213 310.008 62.213 C307.048 62.213 305.567 63.185 305.567 65.128 305.567 66.053 305.922 66.793 306.631 67.348 307.371 67.872 308.374 68.134 309.638 68.134 Z M325.93 38.298 L333.146 38.298 333.146 72.622 325.93 72.622 Z M337.068 38.298 L344.285 38.298 344.285 72.622 337.068 72.622 Z M372.585 60.27 C372.585 60.363 372.539 61.011 372.446 62.213 L353.619 62.213 C353.958 63.755 354.76 64.973 356.024 65.868 357.289 66.762 358.861 67.209 360.743 67.209 362.038 67.209 363.179 67.024 364.166 66.654 365.183 66.253 366.124 65.637 366.987 64.804 L370.827 68.967 C368.483 71.65 365.06 72.992 360.558 72.992 357.751 72.992 355.269 72.452 353.11 71.373 350.951 70.262 349.286 68.736 348.114 66.793 346.942 64.85 346.356 62.645 346.356 60.178 346.356 57.742 346.927 55.552 348.068 53.609 349.24 51.636 350.828 50.109 352.832 49.03 354.868 47.919 357.134 47.364 359.632 47.364 362.069 47.364 364.274 47.889 366.247 48.937 368.221 49.986 369.763 51.497 370.873 53.47 372.014 55.413 372.585 57.68 372.585 60.27 Z M359.679 52.823 C358.044 52.823 356.672 53.285 355.562 54.211 354.451 55.136 353.773 56.4 353.526 58.004 L365.785 58.004 C365.538 56.431 364.86 55.182 363.749 54.257 362.639 53.301 361.282 52.823 359.679 52.823 Z M390.665 71.419 C389.956 71.943 389.077 72.344 388.029 72.622 387.011 72.868 385.932 72.992 384.791 72.992 381.83 72.992 379.533 72.236 377.898 70.725 376.294 69.214 375.493 66.993 375.493 64.064 L375.493 53.841 371.653 53.841 371.653 48.289 375.493 48.289 375.493 42.23 382.709 42.23 382.709 48.289 388.908 48.289 388.908 53.841 382.709 53.841 382.709 63.971 C382.709 65.02 382.971 65.837 383.495 66.423 384.05 66.978 384.821 67.256 385.808 67.256 386.949 67.256 387.921 66.947 388.723 66.33 Z" fill="#3375bb" fill-opacity="1" stroke="none"/>
 <path id="Path-1" d="M106.951 56.225 L106.951 71.902 C106.951 89.602 92.602 103.951 74.902 103.951 L43.549 103.951 C25.849 103.951 11.5 89.602 11.5 71.902 L11.5 40.548 C11.5 22.849 25.849 8.5 43.549 8.5 L74.902 8.5 C92.602 8.5 106.951 22.849 106.951 40.548 Z" fill="#ffffff" fill-opacity="1" stroke="#dfe5ec" stroke-width="1" stroke-opacity="1" stroke-linejoin="round" stroke-linecap="round"/>
 <path id="Path-2" d="M15.146 56.914 C15.146 32.419 35.003 12.562 59.497 12.562 83.992 12.562 103.849 32.419 103.849 56.914 103.849 81.409 83.992 101.266 59.497 101.266 35.003 101.266 15.146 81.409 15.146 56.914 Z" fill="#ffffff" fill-opacity="1" stroke="none"/>
 <path id="Path-3" d="M59.523 30.407 C68.473 37.882 78.737 37.421 81.669 37.421 81.028 79.931 76.14 71.501 59.523 83.421 42.906 71.501 38.049 79.931 37.408 37.421 40.31 37.421 50.573 37.882 59.523 30.407 Z" fill="none" stroke="#3375bb" stroke-width="6.063" stroke-opacity="1" stroke-linejoin="round" stroke-linecap="round"/>
</svg>
